<svg width="30" height="30" viewBox="0 0 30 30" fill="none" xmlns="http://www.w3.org/2000/svg">
<path d="M8.32137 25.586C7.9759 25.5853 7.63655 25.4948 7.33669 25.3232C6.66148 24.9406 6.24173 24.1978 6.24173 23.3915V7.07399C6.24173 6.26543 6.66148 5.52495 7.33669 5.14233C7.64369 4.9659 7.99244 4.87517 8.3465 4.87962C8.70056 4.88407 9.04692 4.98355 9.34938 5.16765L23.2952 13.5155C23.5859 13.6977 23.8255 13.9508 23.9916 14.251C24.1577 14.5511 24.2448 14.8886 24.2448 15.2316C24.2448 15.5747 24.1577 15.9121 23.9916 16.2123C23.8255 16.5125 23.5859 16.7656 23.2952 16.9478L9.34713 25.2979C9.0376 25.485 8.68307 25.5846 8.32137 25.586V25.586Z" fill="#E1E1E6"/>
</svg>
